<?xml version="1.0" encoding="UTF-8" standalone="no"?>
<svg xmlns:dc="http://purl.org/dc/elements/1.1/" xmlns:cc="http://creativecommons.org/ns#" xmlns:rdf="http://www.w3.org/1999/02/22-rdf-syntax-ns#" xmlns:svg="http://www.w3.org/2000/svg" xmlns="http://www.w3.org/2000/svg" id="svg3794" version="1.1" viewBox="0 0 190 159.99998" height="159.99998mm" width="190mm">
   <defs id="defs3788" />
   <metadata id="metadata3791">
      <rdf:RDF>
         <cc:Work rdf:about="">
            <dc:format>image/svg+xml</dc:format>
            <dc:type rdf:resource="http://purl.org/dc/dcmitype/StillImage" />
            <dc:title></dc:title>
         </cc:Work>
      </rdf:RDF>
   </metadata>
   <g transform="translate(-5.9747117,-9.0192908)" id="layer1">
      <path id="path3777" d="m 98.470691,168.94303 c -0.934503,-0.0741 -1.890265,-0.23346 -2.12391,-0.35417 -0.233547,-0.12068 -0.789088,-0.28297 -1.234356,-0.36061 -0.700136,-0.12207 -3.402919,-1.28363 -4.717524,-2.02741 -2.157074,-1.22043 -6.689517,-5.56839 -10.08466,-9.67414 -5.262858,-6.36445 -6.419749,-7.6827 -8.735188,-9.9537 -2.556009,-2.50694 -3.686009,-3.52557 -5.918667,-5.33532 -1.577174,-1.2784 -9.44764,-7.17921 -10.72577,-8.04152 -0.467241,-0.31522 -1.537915,-1.0533 -2.379281,-1.64017 -10.958789,-7.64384 -12.896241,-8.99084 -14.293301,-9.93718 -0.642489,-0.43521 -1.693821,-1.14905 -2.336285,-1.58633 -0.642489,-0.43728 -1.90888,-1.28497 -2.814189,-1.88376 -0.90531,-0.59878 -2.386732,-1.57862 -3.292042,-2.17741 -0.905309,-0.59879 -2.171699,-1.4469 -2.814164,-1.88468 -0.642489,-0.43779 -2.316417,-1.54646 -3.719849,-2.46371 -1.403407,-0.91725 -3.028192,-1.99062 -3.610627,-2.38526 -0.58241,-0.39463 -1.680199,-1.13377 -2.439487,-1.64252 -0.759287,-0.50875 -2.123184,-1.42426 -3.030901,-2.03448 -0.907693,-0.61022 -1.815662,-1.20329 -2.0177,-1.31796 -0.56179,-0.31883 -2.9020894,-1.82658 -3.0222231,-1.94709 -0.058451,-0.0586 -0.7991227,-0.55424 -1.6460341,-1.10146 -0.9105022,-0.58833 -1.5398211,-1.13841 -1.5398211,-1.345954 0,-0.199262 0.4820176,-0.648775 1.1150489,-1.039856 5.3229874,-3.288462 8.6413694,-5.533321 9.8527454,-6.66531 0.133205,-0.124442 0.516486,-0.450567 0.851853,-0.724753 0.843449,-0.689577 5.51168,-5.81537 6.12502,-6.725364 0.275765,-0.409147 0.98616,-1.38972 1.578653,-2.179055 1.276801,-1.700943 3.023201,-4.212031 4.177384,-6.006501 0.456706,-0.710049 0.973742,-1.507383 1.148965,-1.771857 0.175347,-0.26447 0.6531,-1.008155 1.061943,-1.652641 0.408843,-0.644486 0.909599,-1.415567 1.112792,-1.713514 0.816381,-1.197129 0.890233,-1.455496 0.642037,-2.246232 -0.130444,-0.41566 -0.441003,-1.401573 -0.690076,-2.190905 -1.389836,-4.404501 -2.280269,-9.177295 -2.773124,-14.864076 -0.321621,-3.711146 0.153774,-11.257189 0.971887,-15.427885 0.808304,-4.120459 1.016613,-5.056898 1.3796,-6.201905 0.214481,-0.676572 0.598991,-1.922078 0.854436,-2.767793 0.255446,-0.845715 0.588807,-1.860572 0.740799,-2.255238 0.979488,-2.543524 1.925586,-4.767072 2.442548,-5.740609 0.329321,-0.620189 0.909172,-1.727306 1.28859,-2.460261 0.379393,-0.732951 0.933757,-1.701679 1.231947,-2.152728 0.667475,-1.009709 0.663511,-1.003326 2.356129,-3.775584 0.759287,-1.24361 1.482802,-2.2636839 1.607803,-2.2668317 0.124925,-0.00319 1.271934,1.1625697 2.548684,2.5904837 1.276775,1.427915 2.546452,2.834877 2.821463,3.126582 0.275037,0.291706 1.278582,1.398281 2.230099,2.459055 1.56295,1.7424 4.002588,4.446226 5.474377,6.067165 0.307146,0.338286 1.968081,2.183482 3.690951,4.100433 3.550121,3.95005 3.602249,4.007699 6.026308,6.663205 3.211091,3.517649 2.975864,3.317426 3.716413,3.163609 0.364542,-0.07572 0.901722,-0.254768 1.193767,-0.397887 0.292046,-0.143136 0.8655,-0.356033 1.274342,-0.473135 0.408843,-0.117105 1.412387,-0.448567 2.230099,-0.736594 0.81771,-0.288025 2.299133,-0.713938 3.292041,-0.946472 0.992933,-0.232538 2.522144,-0.596053 3.398254,-0.807824 1.648717,-0.398526 3.861984,-0.754412 8.601809,-1.383146 4.02534,-0.533961 19.241531,-0.536558 22.831971,-0.0039 1.34335,0.199291 3.44602,0.510359 4.67257,0.691246 1.22656,0.180888 2.89913,0.487916 3.71684,0.682284 0.81771,0.194375 2.20355,0.516089 3.07967,0.714936 1.63133,0.370262 2.9771,0.784322 6.67444,2.053565 1.15943,0.398014 2.1791,0.723662 2.26592,0.723662 0.20947,0 0.78708,-0.611853 5.40303,-5.723459 0.26308,-0.291335 2.51957,-2.782201 5.01442,-5.535252 2.49485,-2.753054 5.14477,-5.705366 5.88871,-6.560695 0.74393,-0.855329 2.03777,-2.293224 2.87515,-3.195318 0.8374,-0.902098 2.65818,-2.911229 4.04618,-4.464744 1.38801,-1.553511 2.6201,-2.7935284 2.73801,-2.7555902 0.1179,0.037945 0.31677,0.2423133 0.44195,0.4541678 0.12518,0.2118584 0.82491,1.2926594 1.555,2.4017924 0.73009,1.109122 1.32745,2.055855 1.32745,2.103837 0,0.04797 0.27231,0.483972 0.60516,0.968864 0.55958,0.815213 2.94963,5.411199 3.55035,6.827249 1.30454,3.075105 1.67315,4.06399 2.21619,5.945629 0.26035,0.902097 0.60123,1.963084 0.75754,2.357751 0.26293,0.663837 0.62716,2.281351 1.45433,6.458181 0.81259,4.103235 1.30038,11.766409 0.98531,15.479141 -0.25643,3.02129 -0.73059,6.698168 -1.03119,7.995847 -0.11765,0.507428 -0.42798,1.845195 -0.68992,2.972816 -0.26192,1.127617 -0.79673,3.018943 -1.1884,4.202943 -0.82108,2.481872 -0.85427,2.841596 -0.32383,3.508973 0.21372,0.268924 0.45334,0.62734 0.53241,0.796483 0.079,0.169143 0.50153,0.838731 0.9388,1.487971 0.43726,0.649242 1.40624,2.125398 2.15326,3.280351 3.29728,5.09785 6.01507,8.736942 8.84481,11.843095 3.31508,3.6389 5.29492,5.291549 9.44308,7.88251 4.77085,2.979889 5.50844,3.468863 5.60715,3.71719 0.11313,0.284662 0.07,0.324112 -1.51862,1.386452 -0.6133,0.41011 -1.59195,1.06856 -2.17484,1.46323 -0.58286,0.39467 -1.1249,0.71757 -1.20452,0.71757 -0.0795,0 -0.3202,0.15326 -0.53463,0.34059 -0.21448,0.18733 -0.57356,0.44103 -0.79806,0.56381 -0.39973,0.21859 -3.0563,1.96548 -5.27032,3.46563 -0.61326,0.41553 -1.61545,1.09439 -2.22708,1.50856 -0.61164,0.41418 -2.26033,1.50376 -3.66374,2.42129 -1.40343,0.91753 -3.17293,2.08482 -3.93222,2.59398 -0.75929,0.50917 -2.04956,1.37302 -2.86727,1.91969 -0.81771,0.54666 -1.91683,1.28515 -2.44249,1.6411 -0.52568,0.35593 -1.81594,1.21413 -2.86728,1.90712 -1.05132,0.69299 -2.41045,1.60823 -3.02031,2.03387 -0.60983,0.42564 -1.5178,1.04967 -2.0177,1.38672 -0.4999,0.33705 -1.48975,1.02901 -2.1997,1.53767 -0.70994,0.50865 -2.02645,1.43226 -2.92559,2.05245 -0.89914,0.62019 -2.1342,1.47818 -2.7446,1.90665 -2.22576,1.56231 -3.4989,2.44494 -5.67814,3.93646 -2.58966,1.77243 -11.61313,8.5887 -13.43742,10.15059 -2.72867,2.33612 -6.37537,6.0181 -8.62794,8.71141 -1.13174,1.35315 -3.21208,3.84417 -4.62301,5.53559 -2.27465,2.72685 -6.23419,6.75367 -7.71697,7.84806 -2.2536,1.66331 -5.05943,3.11944 -6.5841,3.41689 -0.40885,0.0797 -1.12566,0.27025 -1.59294,0.4233 -1.03575,0.33925 -4.49016,0.5009 -6.796479,0.31804 z m 4.130629,-12.10774 c 1.21211,-0.2209 3.69263,-1.60493 3.92525,-2.19013 0.0695,-0.17476 0.063,-1.18795 -0.0151,-2.25151 -0.11338,-1.5564 -0.21473,-1.97195 -0.51959,-2.12945 -0.59427,-0.30701 -9.808823,-0.25238 -10.218839,0.0606 -0.464412,0.35448 -0.738723,3.99604 -0.33846,4.49281 0.514382,0.63836 2.985074,2.01631 3.652525,2.03707 0.361531,0.0112 0.896258,0.0933 1.188294,0.18236 0.29205,0.0891 0.67435,0.12757 0.84957,0.0855 0.1751,-0.0421 0.83931,-0.17129 1.47576,-0.28729 z M 83.119411,134.77691 c -0.06396,-5.96408 -0.130694,-7.16859 -0.593446,-10.7054 -0.166818,-1.27434 -0.303133,-2.77508 -0.303133,-3.33496 0,-0.90998 -0.643493,-4.44879 -1.291801,-7.10415 -1.381633,-5.65893 -4.381228,-11.29961 -7.168776,-13.48067 -0.428108,-0.334992 -0.82619,-0.6679 -0.884589,-0.739794 -0.280455,-0.345254 -3.139222,-1.670267 -4.008633,-1.857971 -2.818002,-0.608404 -4.417326,-0.655297 -10.496564,-0.307736 -3.308223,0.189148 -6.869633,0.474066 -7.914216,0.63317 -1.044609,0.159115 -2.568326,0.348532 -3.386012,0.420955 -0.817711,0.07244 -2.107983,0.258432 -2.86727,0.413382 -0.759312,0.154959 -2.479674,0.474146 -3.823025,0.70932 -2.435374,0.426346 -3.355483,0.630974 -6.37171,1.417144 -0.87611,0.22835 -1.878852,0.44229 -2.228293,0.47542 -0.693187,0.0658 -0.956233,0.58496 -0.491524,0.97022 0.294428,0.2441 1.828655,1.30991 3.508705,2.43746 0.559029,0.37519 1.876593,1.27943 2.927926,2.00944 1.051332,0.73001 2.246027,1.54635 2.654896,1.81409 0.586222,0.38389 3.604029,2.43279 6.796481,4.61437 0.334666,0.2287 3.214503,2.16251 4.945702,3.32107 0.559079,0.37414 1.200791,0.81865 1.426009,0.98779 0.225267,0.16914 0.896328,0.63044 1.491306,1.02511 0.595002,0.39467 1.781721,1.22501 2.63716,1.84519 0.855465,0.62019 1.766444,1.26602 2.024448,1.43516 0.257979,0.16914 2.061424,1.47623 4.007655,2.90466 1.946232,1.42842 4.207636,3.0852 5.025348,3.68173 4.178611,3.04842 10.289884,8.2536 12.926468,11.00993 0.567935,0.59374 1.141389,1.04435 1.274342,1.00135 0.174594,-0.0565 0.225267,-1.60852 0.182622,-5.59628 z m -22.87785,-21.12162 c -3.132247,-0.82233 -5.021835,-3.92097 -4.275166,-7.01063 0.54576,-2.25825 2.158078,-3.80128 4.618336,-4.41988 2.410488,-0.60605 5.059264,0.44689 6.48033,2.57609 0.850322,1.27407 1.015837,1.99782 0.87902,3.84379 -0.0863,1.16429 -0.22878,1.57217 -0.880174,2.51947 -0.898034,1.306 -2.098726,2.14711 -3.625252,2.53952 -1.278606,0.32868 -1.790451,0.32094 -3.197094,-0.0483 z m 59.519629,26.12927 c 1.21049,-1.3391 3.81307,-3.80915 4.93971,-4.68818 0.64248,-0.50128 1.21594,-0.96066 1.27434,-1.02084 0.7625,-0.78572 6.98286,-5.71029 8.30281,-6.5732 0.41963,-0.27432 1.08866,-0.75592 1.48674,-1.07023 2.32424,-1.8351 9.0623,-6.62258 14.4044,-10.23454 1.21638,-0.82242 2.81595,-1.91047 3.55464,-2.4179 0.73869,-0.50743 1.82567,-1.24551 2.41551,-1.64017 0.58983,-0.39467 1.5414,-1.04049 2.1146,-1.43516 0.57318,-0.39466 1.52452,-1.04048 2.11403,-1.43515 0.58953,-0.39467 1.5925,-1.08661 2.22887,-1.53766 0.63635,-0.45104 1.64433,-1.143 2.23996,-1.53766 0.59562,-0.39467 1.55401,-1.04049 2.12978,-1.43516 0.57573,-0.39466 1.53478,-1.04048 2.13118,-1.43515 0.59642,-0.39467 1.22583,-0.8441 1.39872,-0.99874 0.45317,-0.40533 0.26924,-0.93965 -0.34623,-1.00579 -0.29085,-0.0313 -1.29341,-0.24702 -2.22791,-0.47949 -3.10006,-0.77114 -4.01461,-0.970857 -6.4779,-1.41464 -1.34338,-0.242011 -3.06374,-0.565761 -3.82303,-0.719435 -0.75931,-0.153664 -2.09057,-0.337929 -2.95835,-0.409455 -0.86781,-0.07155 -2.30144,-0.252683 -3.18585,-0.40258 -0.88445,-0.149898 -4.40165,-0.434547 -7.81607,-0.632563 -6.23584,-0.36164 -7.86943,-0.3196 -10.59933,0.272821 -0.83631,0.181485 -3.88371,1.564662 -4.11139,1.866111 -0.0595,0.07862 -0.45776,0.416939 -0.88537,0.751931 -0.4276,0.33498 -1.36293,1.34714 -2.07852,2.24924 -2.33556,2.94427 -4.22186,7.31371 -5.31052,12.3013 -0.24609,1.12762 -0.58934,2.69604 -0.76271,3.48536 -0.17334,0.78934 -0.31399,1.8698 -0.31249,2.40102 0.001,0.53123 -0.1801,2.56095 -0.40377,4.51048 -0.40294,3.51338 -0.78314,14.93675 -0.50604,15.20421 0.25107,0.24237 0.48434,0.12926 1.07019,-0.51878 z m 18.53242,-26.10442 c -1.61942,-0.42968 -3.04633,-1.55873 -4.02319,-3.18339 -0.18262,-0.30368 -0.33983,-1.25643 -0.3887,-2.35517 -0.0818,-1.83812 -0.079,-1.85008 0.73143,-3.11672 1.6043,-2.50766 4.43796,-3.53877 7.24864,-2.6376 2.0747,0.6652 3.49433,2.17262 3.99426,4.24123 0.77348,3.2006 -1.1447,6.21805 -4.48699,7.05842 -1.36417,0.34298 -1.76052,0.34211 -3.07545,-0.007 z" style="stroke-width:0.20867348" />
   </g>
</svg>