<?xml version="1.0" encoding="UTF-8" standalone="no"?>
<!DOCTYPE svg PUBLIC "-//W3C//DTD SVG 1.1//EN" "http://www.w3.org/Graphics/SVG/1.1/DTD/svg11.dtd">
<svg width="100%" height="100%" viewBox="0 0 542 574" version="1.1" xmlns="http://www.w3.org/2000/svg" xmlns:xlink="http://www.w3.org/1999/xlink" xml:space="preserve" xmlns:serif="http://www.serif.com/" style="fill-rule:evenodd;clip-rule:evenodd;">
    <g id="layer1" transform="matrix(1,0,0,1,-15.3026,-25.5665)">
        <path id="path3777" d="M279.13,478.894C276.481,478.684 273.771,478.232 273.109,477.89C272.447,477.548 270.872,477.088 269.61,476.867C267.625,476.521 259.964,473.229 256.238,471.12C250.123,467.661 237.275,455.336 227.651,443.698C212.733,425.657 209.453,421.92 202.89,415.483C195.645,408.376 192.441,405.489 186.113,400.359C181.642,396.735 159.332,380.008 155.709,377.564C154.384,376.67 151.349,374.578 148.964,372.915C117.9,351.247 112.408,347.429 108.448,344.746C106.627,343.513 103.647,341.489 101.825,340.25C100.004,339.01 96.414,336.607 93.848,334.91C91.282,333.212 87.083,330.435 84.516,328.738C81.95,327.04 78.36,324.636 76.539,323.395C74.718,322.154 69.973,319.012 65.995,316.411C62.017,313.811 57.411,310.769 55.76,309.65C54.109,308.531 50.997,306.436 48.845,304.994C46.693,303.552 42.826,300.957 40.253,299.227C37.68,297.497 35.107,295.816 34.534,295.491C32.941,294.587 26.307,290.313 25.967,289.972C25.801,289.806 23.702,288.401 21.301,286.85C18.72,285.182 16.936,283.623 16.936,283.034C16.936,282.469 18.303,281.195 20.097,280.087C35.186,270.765 44.592,264.402 48.026,261.193C48.404,260.84 49.49,259.916 50.441,259.138C52.832,257.184 66.064,242.654 67.803,240.074C68.585,238.915 70.598,236.135 72.278,233.898C75.897,229.076 80.848,221.958 84.119,216.871C85.414,214.859 86.88,212.598 87.376,211.849C87.873,211.099 89.228,208.991 90.386,207.164C91.545,205.337 92.965,203.151 93.541,202.307C95.855,198.913 96.064,198.181 95.361,195.94C94.991,194.761 94.111,191.967 93.405,189.729C89.465,177.244 86.941,163.715 85.544,147.595C84.632,137.075 85.98,115.685 88.299,103.862C90.59,92.182 91.18,89.528 92.209,86.282C92.817,84.364 93.907,80.834 94.631,78.436C95.356,76.039 96.301,73.162 96.731,72.043C99.508,64.833 102.19,58.53 103.655,55.771C104.589,54.013 106.232,50.875 107.308,48.797C108.383,46.719 109.955,43.973 110.8,42.695C112.692,39.832 112.681,39.851 117.479,31.992C119.631,28.467 121.682,25.575 122.036,25.567C122.39,25.557 125.642,28.862 129.261,32.91C132.88,36.957 136.479,40.945 137.259,41.772C138.038,42.599 140.883,45.736 143.58,48.743C148.011,53.682 154.926,61.346 159.098,65.941C159.969,66.9 164.677,72.131 169.561,77.564C179.624,88.761 179.772,88.925 186.643,96.452C195.746,106.424 195.079,105.856 197.178,105.42C198.211,105.205 199.734,104.698 200.562,104.292C201.39,103.886 203.015,103.283 204.174,102.951C205.333,102.619 208.178,101.679 210.496,100.863C212.814,100.047 217.013,98.839 219.827,98.18C222.642,97.521 226.977,96.49 229.46,95.89C234.134,94.76 240.408,93.752 253.843,91.969C265.254,90.456 308.386,90.448 318.564,91.958C322.372,92.523 328.332,93.405 331.809,93.918C335.286,94.431 340.027,95.301 342.345,95.852C344.663,96.403 348.591,97.315 351.075,97.878C355.699,98.928 359.514,100.102 369.994,103.7C373.281,104.828 376.171,105.751 376.417,105.751C377.011,105.751 378.649,104.017 391.733,89.527C392.479,88.701 398.875,81.64 405.947,73.836C413.019,66.033 420.531,57.664 422.64,55.239C424.748,52.815 428.416,48.739 430.79,46.182C433.163,43.624 438.325,37.929 442.259,33.526C446.194,29.122 449.686,25.607 450.02,25.715C450.355,25.822 450.918,26.401 451.273,27.002C451.628,27.602 453.612,30.666 455.681,33.81C457.751,36.954 459.444,39.638 459.444,39.774C459.444,39.91 460.216,41.146 461.159,42.52C462.746,44.831 469.521,57.859 471.223,61.873C474.921,70.59 475.966,73.393 477.505,78.727C478.243,81.284 479.21,84.291 479.653,85.41C480.398,87.292 481.431,91.877 483.775,103.717C486.079,115.348 487.461,137.07 486.568,147.595C485.841,156.159 484.497,166.582 483.645,170.26C483.312,171.698 482.432,175.491 481.69,178.687C480.947,181.883 479.431,187.245 478.321,190.601C475.993,197.636 475.899,198.656 477.403,200.547C478.009,201.31 478.688,202.326 478.912,202.805C479.136,203.285 480.334,205.183 481.573,207.023C482.813,208.863 485.559,213.048 487.677,216.322C497.024,230.772 504.728,241.088 512.749,249.893C522.146,260.208 527.758,264.892 539.517,272.237C553.04,280.684 555.131,282.07 555.411,282.774C555.732,283.581 555.609,283.693 551.106,286.704C549.368,287.866 546.594,289.733 544.941,290.852C543.289,291.97 541.753,292.886 541.527,292.886C541.302,292.886 540.619,293.32 540.011,293.851C539.404,294.382 538.386,295.101 537.749,295.449C536.616,296.069 529.086,301.021 522.81,305.273C521.071,306.451 518.231,308.375 516.497,309.549C514.763,310.723 510.09,313.812 506.111,316.413C502.133,319.014 497.117,322.323 494.965,323.766C492.813,325.209 489.155,327.658 486.837,329.208C484.519,330.757 481.404,332.85 479.914,333.859C478.424,334.868 474.766,337.301 471.786,339.265C468.806,341.23 464.953,343.824 463.224,345.031C461.496,346.237 458.922,348.006 457.505,348.962C456.088,349.917 453.282,351.879 451.27,353.32C449.257,354.762 445.525,357.38 442.977,359.138C440.428,360.896 436.927,363.328 435.197,364.543C428.887,368.972 425.278,371.474 419.101,375.701C411.76,380.726 386.182,400.047 381.011,404.475C373.276,411.097 362.939,421.534 356.554,429.169C353.346,433.004 347.449,440.065 343.449,444.86C337.001,452.59 325.777,464.004 321.574,467.106C315.186,471.821 307.232,475.949 302.911,476.792C301.752,477.018 299.72,477.558 298.395,477.992C295.459,478.954 285.667,479.412 279.13,478.894L279.13,478.894ZM290.838,444.572C294.274,443.946 301.306,440.023 301.965,438.364C302.162,437.869 302.144,434.997 301.922,431.982C301.601,427.57 301.314,426.392 300.449,425.946C298.765,425.075 272.645,425.23 271.483,426.118C270.166,427.122 269.389,437.445 270.523,438.853C271.981,440.663 278.985,444.569 280.877,444.627C281.902,444.659 283.417,444.892 284.245,445.144C285.073,445.397 286.157,445.506 286.653,445.387C287.15,445.267 289.033,444.901 290.837,444.572L290.838,444.572ZM235.614,382.045C235.433,365.139 235.244,361.724 233.932,351.699C233.459,348.086 233.073,343.832 233.073,342.245C233.073,339.666 231.249,329.635 229.411,322.108C225.494,306.067 216.992,290.077 209.09,283.895C207.876,282.945 206.748,282.001 206.582,281.798C205.787,280.819 197.684,277.063 195.219,276.531C187.231,274.806 182.698,274.673 165.465,275.659C156.088,276.195 145.992,277.002 143.031,277.453C140.07,277.904 135.751,278.441 133.433,278.647C131.115,278.852 127.458,279.379 125.305,279.818C123.153,280.258 118.276,281.163 114.469,281.829C107.565,283.038 104.957,283.618 96.407,285.846C93.924,286.494 91.081,287.1 90.091,287.194C88.126,287.38 87.38,288.852 88.697,289.944C89.532,290.636 93.881,293.657 98.643,296.853C100.228,297.917 103.963,300.48 106.943,302.549C109.923,304.619 113.31,306.933 114.469,307.692C116.13,308.78 124.685,314.588 133.734,320.772C134.683,321.42 142.846,326.902 147.753,330.186C149.338,331.247 151.157,332.507 151.796,332.986C152.434,333.465 154.336,334.773 156.023,335.892C157.71,337.011 161.074,339.364 163.498,341.122C165.923,342.88 168.506,344.711 169.237,345.19C169.968,345.67 175.08,349.375 180.597,353.424C186.114,357.473 192.524,362.17 194.842,363.861C206.687,372.502 224.011,387.257 231.484,395.07C233.094,396.753 234.72,398.03 235.097,397.908C235.592,397.748 235.735,393.349 235.614,382.045L235.614,382.045ZM170.763,322.172C161.885,319.841 156.528,311.058 158.645,302.3C160.192,295.898 164.762,291.525 171.736,289.771C178.569,288.053 186.077,291.038 190.106,297.073C192.516,300.685 192.985,302.736 192.597,307.969C192.353,311.269 191.949,312.426 190.102,315.111C187.557,318.813 184.153,321.197 179.826,322.31C176.202,323.241 174.751,323.219 170.763,322.173L170.763,322.172ZM339.481,396.24C342.912,392.444 350.289,385.442 353.483,382.95C355.304,381.529 356.93,380.227 357.095,380.057C359.257,377.829 376.889,363.87 380.631,361.424C381.82,360.646 383.717,359.281 384.845,358.39C391.433,353.188 410.533,339.618 425.676,329.379C429.124,327.048 433.659,323.963 435.753,322.525C437.847,321.087 440.928,318.994 442.6,317.876C444.272,316.757 446.969,314.926 448.594,313.808C450.219,312.689 452.915,310.858 454.586,309.739C456.257,308.621 459.101,306.659 460.904,305.381C462.708,304.102 465.566,302.141 467.254,301.022C468.942,299.903 471.659,298.073 473.291,296.954C474.923,295.835 477.642,294.004 479.332,292.886C481.023,291.767 482.807,290.493 483.297,290.055C484.582,288.906 484.06,287.391 482.316,287.204C481.491,287.115 478.649,286.503 476,285.844C467.213,283.658 464.62,283.092 457.638,281.834C453.83,281.148 448.953,280.231 446.801,279.795C444.648,279.359 440.875,278.837 438.415,278.634C435.955,278.432 431.891,277.918 429.384,277.493C426.877,277.068 416.907,276.261 407.228,275.7C389.552,274.675 384.921,274.794 377.183,276.473C374.812,276.988 366.174,280.909 365.529,281.763C365.36,281.986 364.231,282.945 363.019,283.895C361.807,284.844 359.156,287.713 357.127,290.27C350.507,298.616 345.16,311.002 342.074,325.14C341.376,328.337 340.403,332.783 339.912,335.02C339.42,337.258 339.022,340.32 339.026,341.826C339.029,343.332 338.515,349.085 337.881,354.612C336.739,364.571 335.661,396.952 336.447,397.71C337.159,398.397 337.82,398.077 339.481,396.24ZM392.013,322.243C387.423,321.025 383.378,317.824 380.609,313.219C380.091,312.358 379.646,309.658 379.507,306.543C379.275,301.333 379.283,301.299 381.581,297.708C386.128,290.6 394.161,287.677 402.128,290.232C408.009,292.117 412.033,296.39 413.45,302.254C415.643,311.327 410.205,319.88 400.731,322.262C396.864,323.234 395.741,323.232 392.013,322.242L392.013,322.243Z" style="fill-rule:nonzero;"/>
    </g>
    <rect id="rect840" x="0.304" y="465.2" width="541.243" height="21.981" style="stroke:black;stroke-width:0.61px;"/>
    <g id="rect842" transform="matrix(1,0,0,1.3648,0,-173.713)">
        <rect x="0.304" y="465.2" width="541.243" height="21.981"/>
    </g>
    <g id="rect853" transform="matrix(1,0,0,1.3648,0,-205.137)">
        <rect x="0.304" y="551.341" width="541.243" height="21.981"/>
    </g>
    <g id="rect855" transform="matrix(1,0,0,1.3648,0,-185.579)">
        <rect x="0.304" y="505.453" width="541.243" height="21.981"/>
    </g>
</svg>
